# xmcd
# 
# Track frame offsets:
#     150
#     18861
#     46986
#     68437
#     86511
#     102296
#     122471
#     142235
#     161433
#     180183
# 
# Disc length: 2830
# 
# Revision: 0
# Processed by: cddbd v1.5.2PL0 Copyright (c) Steve Scherf et al.
# Submitted via: fre:ac v1.0.17
# 
DISCID=710b0c0a
DTITLE=五十一 - Lonely Road
DYEAR=2003
DGENRE=Blues
TTITLE0=街
TTITLE1=Riflain
TTITLE2=Trouble Travel
TTITLE3=Bar Story
TTITLE4=線路
TTITLE5=分け前
TTITLE6=ハートブレイカーブルース
TTITLE7=てんさくの花
TTITLE8=遙かなる道
TTITLE9=Lonely Road
EXTD=
EXTT0=
EXTT1=
EXTT2=
EXTT3=
EXTT4=
EXTT5=
EXTT6=
EXTT7=
EXTT8=
EXTT9=
PLAYORDER=
